<svg width="63" height="62" viewBox="0 0 63 62" fill="none" xmlns="http://www.w3.org/2000/svg">
<g id="Simplification" clip-path="url(#clip0_197_165)">
<path id="Vector" d="M30.766 0.283026C31.3894 0.486162 31.912 0.400531 32.5171 0.183691C34.0273 -0.299567 35.6715 -0.0883039 37.0733 0.60752C38.1857 1.23616 39.2059 2.03882 40.0334 3.01568C40.9617 4.09418 42.0105 4.51245 43.3214 5.01893C45.0841 5.70615 46.8091 6.63102 48.335 7.75205C48.4074 7.80442 48.4798 7.85679 48.5544 7.91075C50.817 9.54995 52.9124 11.3506 54.6319 13.5646C54.7537 13.7164 54.8756 13.8683 54.9975 14.0201C59.1354 19.229 61.2352 25.6699 61.2088 32.2887C61.2085 32.4062 61.2082 32.5237 61.208 32.6448C61.2018 34.3799 61.1597 36.0785 60.8076 37.7833C60.7836 37.9023 60.7595 38.0214 60.7347 38.144C59.9209 42.0573 58.4343 45.9085 56.085 49.1661C56.0279 49.2463 55.9709 49.3265 55.9121 49.4091C54.297 51.6662 52.4663 53.7536 50.2725 55.463C50.1204 55.585 49.9685 55.707 49.8165 55.8291C46.0352 58.8323 41.5635 60.7415 36.8311 61.6388C36.7362 61.6584 36.6414 61.6781 36.5437 61.6983C33.0593 62.4048 29.0321 62.2659 25.5694 61.5177C25.4447 61.4911 25.3201 61.4645 25.1917 61.4371C21.5727 60.6427 18.0979 59.2649 15.0342 57.1583C14.9621 57.1095 14.89 57.0607 14.8158 57.0105C13.74 56.2794 12.7408 55.474 11.7647 54.6153C11.5996 54.4706 11.5996 54.4706 11.4312 54.323C10.4634 53.4631 9.58149 52.5798 8.77138 51.5686C8.5925 51.3459 8.411 51.1253 8.22646 50.9073C6.992 49.4447 5.99348 47.83 5.10451 46.1388C5.05645 46.0481 5.00839 45.9574 4.95888 45.8639C2.76873 41.673 1.77831 37.0863 1.79714 32.3795C1.7974 32.262 1.79766 32.1444 1.79793 32.0233C1.80411 30.2883 1.84617 28.5896 2.19826 26.8849C2.22232 26.7658 2.24638 26.6468 2.27117 26.5241C3.25752 21.7815 5.26017 17.2942 8.37404 13.5646C8.43145 13.4949 8.48885 13.4252 8.548 13.3533C9.81146 11.8223 11.1636 10.4254 12.7334 9.20518C12.8524 9.1098 12.9713 9.01442 13.0939 8.91616C15.2555 7.19594 17.7263 5.63455 20.3514 4.75063C21.7606 4.27092 22.5685 3.44839 23.5751 2.37473C25.4278 0.417202 28.1331 -0.660515 30.766 0.283026Z" fill="#FEC6AA"/>
<path id="Vector_2" d="M41.1914 4.23438C43.695 4.83826 46.2643 6.24678 48.3359 7.74609C48.409 7.79882 48.4822 7.85154 48.5575 7.90586C50.8191 9.54487 52.9139 11.3453 54.6328 13.5586C54.7546 13.7105 54.8765 13.8623 54.9985 14.0141C59.1364 19.2231 61.2362 25.6639 61.2097 32.2827C61.2093 32.459 61.2093 32.459 61.2089 32.6389C61.2027 34.3739 61.1607 36.0726 60.8086 37.7773C60.7845 37.8964 60.7605 38.0154 60.7357 38.1381C60.0578 41.3978 58.9383 44.9154 57.0547 47.707C56.9748 47.707 56.8948 47.707 56.8125 47.707C56.7727 47.5722 56.7329 47.4373 56.6919 47.2983C55.7598 44.2616 53.9323 41.5167 51.0757 39.9793C50.6662 39.7689 50.2524 39.5683 49.8372 39.3697C49.5243 39.2197 49.2125 39.0676 48.9007 38.9154C48.6696 38.8034 48.4385 38.6914 48.2073 38.5796C48.0323 38.4945 48.0323 38.4945 47.8538 38.4077C47.2413 38.1138 46.6277 37.8406 45.994 37.5952C43.8982 36.7751 43.8982 36.7751 43.4468 35.9534C43.3939 35.8316 43.3409 35.7099 43.2864 35.5844C42.3631 33.5327 39.3586 32.7303 37.4375 31.9648C37.5737 31.605 37.7067 31.3189 37.9219 30.9961C38.1628 30.9238 38.1628 30.9238 38.4611 30.8845C38.6279 30.86 38.6279 30.86 38.7981 30.8351C38.9186 30.8183 39.039 30.8015 39.1631 30.7842C40.6218 30.5557 41.9828 30.1599 43.3711 29.6641C43.4643 29.6312 43.5575 29.5983 43.6535 29.5645C45.0389 29.0701 45.0389 29.0701 46.0006 27.9834C46.168 27.5769 46.2634 27.1972 46.3455 26.7654C46.3731 26.6244 46.4007 26.4835 46.4292 26.3382C46.4599 26.1553 46.4899 25.9722 46.5195 25.7891C46.5405 25.6692 46.5614 25.5493 46.5829 25.4258C46.7906 24.0977 46.8027 22.7819 46.7999 21.4402C46.7996 21.0545 46.8024 20.6688 46.8055 20.2831C46.8119 18.2282 46.6247 16.2152 46.126 14.217C46.1003 14.1132 46.0746 14.0094 46.0482 13.9024C45.1781 10.4989 43.6274 7.38202 41.3565 4.69699C41.1914 4.47656 41.1914 4.47656 41.1914 4.23438Z" fill="#A5AFDA"/>
<path id="Vector_3" d="M21.8156 4.356C21.7234 4.47479 21.6311 4.59358 21.5361 4.71597C20.7519 5.73643 20.0302 6.76672 19.3978 7.888C19.3154 8.03408 19.2322 8.17967 19.148 8.32472C16.9702 12.0814 16.0953 16.4741 16.1015 20.7793C16.1015 20.8652 16.1016 20.9511 16.1016 21.0395C16.1039 22.3183 16.1617 23.5568 16.3664 24.8208C16.3934 25.0179 16.4201 25.215 16.4463 25.4121C16.6879 27.3804 16.6879 27.3804 17.8195 28.938C18.1791 29.1307 18.5511 29.2777 18.9321 29.4224C19.0393 29.464 19.1466 29.5055 19.2571 29.5484C20.5108 30.0237 21.7778 30.4084 23.1013 30.631C23.216 30.6506 23.3308 30.6702 23.449 30.6905C23.6714 30.7271 23.8943 30.761 24.1176 30.7915C24.6425 30.876 24.9837 30.9488 25.3401 31.3604C25.5695 31.7232 25.5695 31.7232 25.5695 31.9654C25.4658 32.0086 25.3621 32.0519 25.2553 32.0964C24.8643 32.2603 24.474 32.4254 24.0839 32.5914C23.9162 32.6625 23.7483 32.733 23.5802 32.8031C22.2133 33.373 20.8005 34.0242 19.8781 35.2349C19.834 35.3437 19.7898 35.4525 19.7443 35.5646C19.3022 36.6187 18.6937 36.919 17.6682 37.3465C17.2582 37.513 16.8473 37.6773 16.4361 37.8408C15.6945 38.1478 14.9759 38.5004 14.2548 38.8526C14.1209 38.9174 13.9871 38.9823 13.8491 39.0491C13.4768 39.2298 13.1051 39.4119 12.7336 39.5943C12.5659 39.6752 12.5659 39.6752 12.3948 39.7578C9.58175 41.1305 7.61044 43.5819 6.55781 46.4966C6.41822 46.9373 6.29491 47.3774 6.19453 47.8287C3.94937 45.792 2.86563 41.0835 2.28169 38.2168C2.26386 38.1293 2.24602 38.0419 2.22765 37.9517C1.87719 36.0952 1.78977 34.2592 1.79731 32.3741C1.79758 32.2565 1.79784 32.139 1.79811 32.0179C1.80429 30.2829 1.84635 28.5842 2.19844 26.8794C2.2225 26.7604 2.24655 26.6414 2.27134 26.5187C3.2577 21.7761 5.26035 17.2888 8.37422 13.5591C8.43162 13.4894 8.48903 13.4197 8.54817 13.3479C9.81164 11.8169 11.1638 10.42 12.7336 9.19975C12.912 9.05669 12.912 9.05669 13.094 8.91074C19.9745 3.43542 19.9745 3.43542 21.8156 4.356Z" fill="#A5AFDA"/>
<path id="Vector_4" d="M30.763 0.283026C31.3864 0.486162 31.909 0.400531 32.5141 0.183691C34.0243 -0.299567 35.6685 -0.0883039 37.0703 0.60752C38.066 1.17024 38.914 1.87424 39.7343 2.66611C39.7963 2.72559 39.8582 2.78506 39.9221 2.84633C40.1204 3.03749 40.3174 3.22991 40.5139 3.42295C40.5755 3.48293 40.637 3.54291 40.7005 3.60471C41.0518 3.95528 41.3039 4.29685 41.5507 4.72471C41.7282 4.97453 41.9108 5.22029 42.0931 5.46655C42.8382 6.47468 43.5218 7.48179 44.0937 8.59971C44.166 8.74087 44.166 8.74087 44.2398 8.88488C45.1885 10.7589 45.8837 12.6183 46.3642 14.662C46.4003 14.814 46.4003 14.814 46.4372 14.9692C46.8518 16.8348 46.921 18.6912 46.9171 20.5957C46.9167 20.9793 46.9196 21.3628 46.9226 21.7464C46.9386 26.9841 46.9386 26.9841 45.6679 28.7013C45.0214 29.2048 44.2968 29.4836 43.5261 29.7381C43.4193 29.7742 43.3126 29.8103 43.2027 29.8475C42.8946 29.9511 42.586 30.0528 42.2773 30.1544C42.1323 30.2036 41.9873 30.2527 41.8379 30.3034C41.127 30.5356 40.4149 30.7096 39.6814 30.8507C39.6011 30.8662 39.5208 30.8817 39.4381 30.8976C38.9662 30.9826 38.5181 31.0169 38.039 31.0021C38.0963 30.9064 38.1536 30.8107 38.2126 30.7121C39.325 28.8148 40.1775 26.8935 40.8455 24.7965C40.8999 24.627 40.8999 24.627 40.9555 24.4541C41.0341 24.2029 41.1087 23.9505 41.1805 23.6973C41.2195 23.5663 41.2585 23.4353 41.2986 23.3003C41.3325 23.1808 41.3664 23.0613 41.4014 22.9381C41.5507 22.6466 41.5507 22.6466 41.8498 22.491C42.1562 22.412 42.1562 22.412 42.4665 22.3708C42.8915 22.2448 43.0124 22.05 43.2461 21.6778C43.351 21.3684 43.4373 21.0781 43.5109 20.7621C43.5308 20.6822 43.5508 20.6024 43.5713 20.5201C43.6257 20.3009 43.6781 20.0812 43.7304 19.8614C43.7542 19.7748 43.7779 19.6882 43.8023 19.5989C43.9718 18.8344 43.9244 18.0952 43.5237 17.4168C42.8328 16.4484 41.9398 16.2822 40.8303 16.0409C37.8769 15.3925 35.5928 13.8381 33.5207 11.6876C32.796 10.9618 32.2518 10.7451 31.2242 10.7193C30.2243 10.9015 29.6258 11.5202 28.957 12.2401C26.7493 14.5213 24.254 15.6394 21.1809 16.285C20.433 16.4527 20.0059 16.7435 19.5117 17.3185C19.0725 18.0146 19.0616 18.8202 19.1484 19.6192C19.2207 19.9064 19.3104 20.175 19.4166 20.4513C19.5112 20.7079 19.5697 20.9563 19.6252 21.2237C19.7652 21.7177 19.8525 21.9458 20.2382 22.2833C20.437 22.3213 20.6364 22.3563 20.8361 22.3893C21.1597 22.4763 21.1597 22.4763 21.4492 22.6466C21.7144 23.1333 21.8438 23.6498 21.981 24.1834C22.6124 26.5796 23.606 28.925 24.9609 31.0021C24.1598 31.0476 23.4304 30.8806 22.6525 30.6993C22.5146 30.6672 22.3766 30.635 22.2344 30.6019C21.307 30.3773 20.4025 30.1127 19.5041 29.7911C19.3457 29.7353 19.3457 29.7353 19.1841 29.6783C18.3461 29.3643 17.3982 28.9612 16.9233 28.1639C16.6086 27.4144 16.4983 26.5923 16.3632 25.795C16.3276 25.589 16.3276 25.589 16.2913 25.3788C15.2095 18.7607 16.4807 11.5758 20.4042 6.06584C20.6497 5.73398 20.9027 5.40969 21.1602 5.08704C21.3784 4.81348 21.5858 4.53802 21.7916 4.25547C23.8551 1.49704 27.1797 -1.0011 30.763 0.283026Z" fill="#312D2C"/>
<path id="Vector_5" d="M37.315 31.8438C38.1892 32.1902 39.06 32.5442 39.926 32.9109C40.1034 32.9836 40.1034 32.9836 40.2844 33.0578C41.8966 33.7447 43.1879 34.8681 43.9751 36.4453C43.9751 36.5252 43.9751 36.6052 43.9751 36.6875C44.0399 36.7028 44.1046 36.7182 44.1714 36.734C45.2251 37.0147 46.1675 37.505 47.1387 37.9893C47.4793 38.1582 47.8202 38.3266 48.1614 38.4944C48.2454 38.5359 48.3294 38.5774 48.4159 38.6201C49.0872 38.9487 49.7681 39.2513 50.4589 39.5368C52.9746 40.5997 55.1687 43.0218 56.1909 45.5344C56.2357 45.652 56.2805 45.7695 56.3267 45.8906C56.3585 45.9645 56.3903 46.0383 56.4231 46.1144C57.0216 47.5126 57.0216 47.5126 56.8323 48.1801C56.6103 48.537 56.3583 48.841 56.0845 49.1602C55.9742 49.3086 55.8653 49.4582 55.7576 49.6086C54.1876 51.7923 52.3969 53.8013 50.272 55.457C50.12 55.579 49.968 55.7011 49.816 55.8232C46.4391 58.5051 41.1652 61.6328 36.7095 61.6328C36.7991 60.7841 36.9606 59.9527 37.1226 59.1151C37.5817 56.731 37.9727 54.3434 38.2459 51.9302C38.2603 51.8026 38.2748 51.675 38.2897 51.5436C38.4719 49.8534 38.546 48.1682 38.5505 46.4691C38.5508 46.3794 38.5512 46.2897 38.5515 46.1972C38.5533 45.721 38.5545 45.2448 38.555 44.7686C38.5555 44.3846 38.5572 44.0006 38.56 43.6167C38.5741 41.6042 38.5531 39.6023 38.3802 37.5962C38.3681 37.4395 38.356 37.2828 38.3435 37.1213C38.2869 36.2718 38.2869 36.2718 37.8594 35.5713C37.7596 35.5001 37.6599 35.4289 37.5571 35.3555C36.8944 34.579 36.5175 33.877 36.5316 32.8357C36.6341 32.3565 36.944 32.1451 37.315 31.8438Z" fill="#2D3250"/>
<path id="Vector_6" d="M25.5634 31.8438C26.2626 32.3656 26.2626 32.3656 26.3823 32.7307C26.3549 33.6031 26.1312 34.431 25.4911 35.0617C25.4275 35.1162 25.364 35.1707 25.2986 35.2268C24.525 35.9326 24.6485 37.4981 24.581 38.4746C24.5708 38.6208 24.5606 38.7671 24.55 38.9178C24.4506 40.4736 24.4412 42.0272 24.4487 43.5857C24.4509 44.0614 24.4512 44.537 24.4511 45.0127C24.4544 47.4558 24.5031 49.8874 24.7839 52.3162C24.7936 52.4014 24.8033 52.4866 24.8133 52.5745C25.0588 54.7046 25.4418 56.8129 25.8293 58.921C25.8477 59.0217 25.8661 59.1225 25.8851 59.2263C25.97 59.6812 26.0636 60.1289 26.1826 60.5762C26.2724 60.9533 26.314 61.2494 26.29 61.6328C22.2689 60.8774 18.416 59.4818 15.0283 57.1523C14.9562 57.1036 14.8841 57.0548 14.8099 57.0045C13.7341 56.2734 12.7349 55.468 11.7588 54.6094C11.6487 54.5129 11.5387 54.4164 11.4253 54.317C10.4575 53.4572 9.57558 52.5739 8.76548 51.5626C8.5866 51.34 8.4051 51.1194 8.22055 50.9014C6.0828 48.3684 6.0828 48.3684 6.1279 47.4648C6.19602 47.1787 6.19602 47.1787 6.30954 46.8594C6.3545 46.7228 6.39946 46.5862 6.44577 46.4455C7.0894 44.6216 8.10787 43.1402 9.45798 41.7734C9.52698 41.6957 9.59597 41.618 9.66706 41.5379C10.9897 40.0795 12.8869 39.3328 14.6457 38.5555C15.3937 38.2179 16.1294 37.8537 16.8643 37.4886C17.4968 37.1804 18.1069 36.9462 18.7907 36.7767C19.0615 36.7047 19.0615 36.7047 19.1682 36.3696C19.2007 36.2348 19.2331 36.0999 19.2666 35.9609C19.5206 35.5736 19.8135 35.2229 20.1142 34.8711C20.1779 34.7957 20.2416 34.7203 20.3072 34.6426C21.3034 33.5561 22.7432 33.0035 24.0801 32.4568C24.2955 32.3672 24.2955 32.3672 24.5152 32.2759C24.8643 32.1309 25.2137 31.9869 25.5634 31.8438Z" fill="#292D43"/>
<path id="Vector_7" d="M24.595 37.7812C24.7913 38.0395 24.9821 38.2998 25.1674 38.566C26.4224 40.3556 27.9219 41.3295 29.8408 42.3171C30.3399 42.6044 30.3399 42.6044 30.5286 42.8672C30.5765 43.2365 30.5449 43.583 30.5286 43.957C31.168 43.957 31.8074 43.957 32.4661 43.957C32.4511 43.7897 32.4362 43.6224 32.4207 43.45C32.3952 43.1647 32.3952 43.1647 32.4661 42.8672C32.9612 42.3675 33.4978 42.0903 34.1312 41.8C34.9612 41.4014 35.6591 40.9497 36.3411 40.3242C36.4265 40.2485 36.5119 40.1728 36.5999 40.0948C37.172 39.5597 37.5806 38.9754 37.9825 38.3044C38.1575 38.0234 38.1575 38.0234 38.3997 37.7812C38.9184 38.8186 38.6617 40.5375 38.6622 41.6851C38.6626 41.8709 38.663 42.0567 38.6635 42.2425C38.6642 42.6301 38.6644 43.0178 38.6643 43.4054C38.6643 43.796 38.6652 44.1866 38.6668 44.5772C38.6765 46.8848 38.6462 49.1673 38.3997 51.4648C38.3855 51.6002 38.3855 51.6002 38.3711 51.7384C38.3153 52.2614 38.2502 52.7827 38.1802 53.304C38.1597 53.4593 38.1392 53.6146 38.118 53.7746C37.7632 56.419 37.2988 59.0358 36.7044 61.6367C35.0728 61.9114 33.4876 62.0587 31.8329 62.0474C31.4974 62.0454 31.1621 62.0474 30.8266 62.0497C29.2873 62.0512 27.8074 61.8921 26.2903 61.6367C25.5305 58.4207 24.9828 55.1344 24.6102 51.8508C24.5971 51.7374 24.5841 51.6239 24.5706 51.5071C24.3206 49.0932 24.3333 46.6616 24.3375 44.2379C24.3378 43.9134 24.3372 43.5888 24.3366 43.2643C24.3345 41.8286 24.3339 40.3937 24.4068 38.9595C24.4115 38.8659 24.4161 38.7723 24.421 38.6758C24.458 38.0554 24.458 38.0554 24.595 37.7812Z" fill="#5B5B60"/>
<path id="Vector_8" d="M27.2592 13.6875C27.2603 13.8311 27.2614 13.9748 27.2626 14.1228C27.3026 19.4303 27.3026 19.4303 28.4701 24.5859C28.5051 24.6884 28.5401 24.7909 28.5761 24.8965C29.8261 28.4894 31.7585 31.1654 35.16 32.9537C35.5676 33.0867 35.8094 33.0533 36.2201 32.9414C36.34 32.8615 36.4599 32.7816 36.5834 32.6992C36.5991 32.8245 36.5991 32.8245 36.6151 32.9523C36.7964 34.1654 37.1714 34.9869 38.1576 35.7266C38.4619 36.3352 38.4299 37.1168 38.3998 37.7852C38.2397 38.2639 37.9938 38.6095 37.6732 38.9961C37.5897 39.098 37.5062 39.2 37.4202 39.305C36.1709 40.7519 34.7876 41.6868 33.0669 42.5026C32.8108 42.624 32.8108 42.624 32.5873 42.8711C32.5316 43.1378 32.5316 43.1378 32.5116 43.4312C32.4891 43.6934 32.4891 43.6934 32.4662 43.9609C31.8268 43.9609 31.1874 43.9609 30.5287 43.9609C30.5169 43.6929 30.505 43.4248 30.4932 43.1568C30.3694 42.7437 30.1574 42.6232 29.8021 42.3867C29.5377 42.2496 29.27 42.1188 28.9999 41.9932C27.0987 41.0722 25.5479 39.6908 24.5951 37.7852C24.5965 37.4872 24.6067 37.1965 24.6254 36.8997C24.6335 36.7403 24.6416 36.5809 24.65 36.4167C24.7438 35.7821 25.0136 35.4128 25.4427 34.9546C25.9969 34.3136 26.2832 33.632 26.2587 32.7792C26.1028 32.2172 25.6896 31.8796 25.2876 31.4736C23.1501 29.2102 22.1507 25.5957 21.4467 22.6484C21.3018 22.6409 21.1569 22.6335 21.0077 22.6257C20.421 22.5529 20.1614 22.3417 19.7513 21.9219C19.5047 21.5162 19.4194 21.0967 19.3199 20.6353C19.2154 20.1131 19.2154 20.1131 19.0248 19.6211C18.9403 18.656 18.9851 17.8432 19.5867 17.0625C20.3233 16.2992 21.1726 16.1208 22.1716 15.9178C23.5698 15.6276 26.1003 13.6875 27.2592 13.6875Z" fill="#FEA97B"/>
<path id="Vector_9" d="M41.1914 4.23438C43.695 4.83826 46.2643 6.24678 48.3359 7.74609C48.409 7.79882 48.4822 7.85154 48.5575 7.90586C49.7442 8.76589 50.8694 9.68356 51.9688 10.6523C51.716 11.0989 51.4637 11.5405 51.1816 11.9692C50.5731 12.9466 50.2686 13.8631 50.1523 15.0117C50.1392 15.1363 50.1261 15.2608 50.1126 15.3892C50.0353 16.9117 50.4522 18.3822 50.7985 19.8538C51.0101 20.8139 51.0342 21.7437 51.0378 22.7239C51.0384 22.8517 51.0384 22.8517 51.0389 22.9821C51.0411 25.2927 50.6747 27.5381 50.1523 29.7852C49.8137 31.2638 49.6488 32.7699 50.3945 34.1445C50.462 34.2694 50.5294 34.3943 50.5989 34.5229C51.4338 35.561 52.5544 36.2641 53.6488 36.999C55.4369 38.1998 57.2103 39.408 58.75 40.9258C58.8437 41.0168 58.9373 41.1078 59.0338 41.2016C59.5944 41.8149 59.5944 41.8149 59.6019 42.2763C59.5135 42.6145 59.3816 42.9091 59.2344 43.2266C59.1671 43.3866 59.1003 43.5468 59.0338 43.7072C58.4536 45.0813 57.7653 46.3967 57.0547 47.707C56.9748 47.707 56.8948 47.707 56.8125 47.707C56.7727 47.5722 56.7329 47.4373 56.6919 47.2983C55.7598 44.2616 53.9323 41.5167 51.0757 39.9793C50.6662 39.7689 50.2524 39.5683 49.8372 39.3697C49.5243 39.2197 49.2125 39.0676 48.9007 38.9154C48.6696 38.8034 48.4385 38.6914 48.2073 38.5796C48.0323 38.4945 48.0323 38.4945 47.8538 38.4077C47.2413 38.1138 46.6277 37.8406 45.994 37.5952C43.8982 36.7751 43.8982 36.7751 43.4468 35.9534C43.3939 35.8316 43.3409 35.7099 43.2864 35.5844C42.3631 33.5327 39.3586 32.7303 37.4375 31.9648C37.5737 31.605 37.7067 31.3189 37.9219 30.9961C38.1628 30.9238 38.1628 30.9238 38.4611 30.8845C38.6279 30.86 38.6279 30.86 38.7981 30.8351C38.9186 30.8183 39.039 30.8015 39.1631 30.7842C40.6218 30.5557 41.9828 30.1599 43.3711 29.6641C43.4643 29.6312 43.5575 29.5983 43.6535 29.5645C45.0389 29.0701 45.0389 29.0701 46.0006 27.9834C46.168 27.5769 46.2634 27.1972 46.3455 26.7654C46.3731 26.6244 46.4007 26.4835 46.4292 26.3382C46.4599 26.1553 46.4899 25.9722 46.5195 25.7891C46.5405 25.6692 46.5614 25.5493 46.5829 25.4258C46.7906 24.0977 46.8027 22.7819 46.7999 21.4402C46.7996 21.0545 46.8024 20.6688 46.8055 20.2831C46.8119 18.2282 46.6247 16.2152 46.126 14.217C46.1003 14.1132 46.0746 14.0094 46.0482 13.9024C45.1781 10.4989 43.6274 7.38202 41.3565 4.69699C41.1914 4.47656 41.1914 4.47656 41.1914 4.23438Z" fill="#A5AFDA"/>
<path id="Vector_10" d="M21.8133 4.36051C21.721 4.4793 21.6288 4.59809 21.5337 4.72048C20.7496 5.74094 20.0278 6.77123 19.3955 7.89251C19.3131 8.03859 19.2298 8.18418 19.1456 8.32923C16.9679 12.0859 16.0929 16.4786 16.0992 20.7839C16.0992 20.8697 16.0992 20.9556 16.0993 21.0441C16.1015 22.3228 16.1593 23.5613 16.3641 24.8254C16.3911 25.0224 16.4177 25.2195 16.444 25.4166C16.6856 27.3849 16.6856 27.3849 17.8172 28.9425C18.1767 29.1352 18.5487 29.2822 18.9297 29.4269C19.037 29.4685 19.1442 29.51 19.2547 29.5529C20.5085 30.0282 21.7755 30.413 23.099 30.6355C23.2137 30.6551 23.3284 30.6748 23.4467 30.695C23.669 30.7317 23.8919 30.7655 24.1152 30.796C24.6401 30.8805 24.9814 30.9533 25.3378 31.3649C25.5672 31.7277 25.5672 31.7277 25.5672 31.9699C25.4635 32.0131 25.3598 32.0564 25.2529 32.1009C24.862 32.2648 24.4716 32.4299 24.0816 32.5959C23.9139 32.667 23.746 32.7375 23.5778 32.8076C22.211 33.3775 20.7981 34.0287 19.8758 35.2394C19.8316 35.3482 19.7874 35.457 19.7419 35.5691C19.2999 36.6232 18.6913 36.9235 17.6658 37.351C17.2558 37.5175 16.845 37.6818 16.4338 37.8454C15.6921 38.1523 14.9735 38.5049 14.2525 38.8571C14.1186 38.9219 13.9847 38.9868 13.8468 39.0536C13.4744 39.2343 13.1028 39.4165 12.7312 39.5988C12.5635 39.6797 12.5635 39.6797 12.3924 39.7623C9.5794 41.135 7.60809 43.5864 6.55546 46.5011C6.41587 46.9418 6.29256 47.3819 6.19218 47.8332C5.03223 46.781 4.37527 44.7619 3.78545 43.3376C3.74288 43.2381 3.70031 43.1386 3.65646 43.036C3.38838 42.3621 3.38838 42.3621 3.46852 41.9355C4.28649 40.6764 5.48084 39.7491 6.67656 38.8722C6.7438 38.8227 6.81104 38.7731 6.88031 38.722C7.56122 38.2225 8.25391 37.7408 8.9518 37.2654C9.10289 37.1624 9.10289 37.1624 9.25704 37.0574C9.45273 36.9244 9.64868 36.7919 9.84495 36.6597C11.4676 35.5602 12.4665 34.7017 13.0945 32.8175C13.1835 31.8401 13.0813 30.9275 12.8902 29.9718C12.8585 29.8125 12.8585 29.8125 12.8261 29.6499C12.7274 29.1578 12.6278 28.6659 12.5278 28.1741C11.8973 25.0037 11.6641 21.8552 12.4243 18.6821C12.9925 16.2714 13.1046 14.1451 11.8264 11.9237C11.5798 11.5271 11.3174 11.1511 11.0359 10.7785C12.6238 9.18221 19.4099 3.1588 21.8133 4.36051Z" fill="#A5AFDA"/>
<path id="Vector_11" d="M30.6523 0.245483C30.6523 0.325405 30.6523 0.405327 30.6523 0.487671C30.5724 0.487671 30.4925 0.487671 30.4101 0.487671C30.3812 0.551515 30.3524 0.615359 30.3226 0.681137C30.1633 0.98082 29.9779 1.25333 29.7837 1.53128C29.2119 2.35416 28.7123 3.20364 28.2456 4.09021C28.1909 4.19315 28.1362 4.29608 28.0798 4.40214C26.7311 7.00893 26.1593 9.98581 27.0195 12.8392C27.0452 12.9329 27.071 13.0266 27.0975 13.123C27.1496 13.3118 27.205 13.4995 27.2617 13.6869C25.5919 15.2463 23.3568 15.8313 21.182 16.2857C20.4337 16.4536 20.0062 16.7445 19.5117 17.3197C19.0725 18.0159 19.0616 18.8215 19.1484 19.6205C19.2207 19.9077 19.3104 20.1763 19.4166 20.4525C19.5112 20.7091 19.5697 20.9575 19.6252 21.225C19.7652 21.719 19.8525 21.947 20.2382 22.2845C20.437 22.3226 20.6364 22.3576 20.8361 22.3905C21.1597 22.4775 21.1597 22.4775 21.4492 22.6478C21.7144 23.1346 21.8438 23.6511 21.981 24.1847C22.6124 26.5808 23.606 28.9262 24.9609 31.0033C24.1598 31.0489 23.4304 30.8819 22.6525 30.7006C22.5146 30.6684 22.3766 30.6362 22.2344 30.6031C21.307 30.3785 20.4025 30.114 19.5041 29.7924C19.3457 29.7365 19.3457 29.7365 19.1841 29.6795C18.3461 29.3655 17.3982 28.9624 16.9233 28.1652C16.6086 27.4156 16.4983 26.5935 16.3632 25.7963C16.3276 25.5902 16.3276 25.5902 16.2913 25.38C15.2095 18.7619 16.4807 11.577 20.4042 6.06709C20.6497 5.73523 20.9027 5.41094 21.1602 5.08829C21.3784 4.81472 21.5858 4.53927 21.7916 4.25671C23.8421 1.51563 27.0872 -0.924107 30.6523 0.245483Z" fill="#312D2C"/>
<path id="Vector_12" d="M37.315 31.8438C38.1892 32.1902 39.06 32.5442 39.926 32.9109C40.1034 32.9836 40.1034 32.9836 40.2844 33.0578C41.0892 33.4007 41.7385 33.8166 42.4009 34.3867C42.4779 34.4519 42.5549 34.5171 42.6342 34.5843C43.8276 35.628 44.5312 37.3138 44.7017 38.8672C44.7569 40.0653 44.6615 41.261 44.5654 42.4546C44.5577 42.5515 44.55 42.6483 44.5421 42.7482C44.1732 47.3154 43.5633 51.8557 42.8127 56.3747C42.7657 56.6589 42.7195 56.9433 42.6737 57.2278C42.595 57.7151 42.5135 58.202 42.4312 58.6887C42.4086 58.8276 42.386 58.9664 42.3628 59.1094C42.341 59.2333 42.3193 59.3572 42.2968 59.4848C42.2697 59.644 42.2697 59.644 42.2421 59.8063C42.1587 60.0586 42.1587 60.0586 41.7954 60.3008C41.4609 60.422 41.1281 60.5348 40.7888 60.6414C40.6892 60.6728 40.5895 60.7043 40.4869 60.7367C37.5696 61.6328 37.5696 61.6328 36.7095 61.6328C36.7991 60.7841 36.9606 59.9527 37.1226 59.1151C37.5817 56.731 37.9727 54.3434 38.2459 51.9302C38.2603 51.8026 38.2748 51.675 38.2897 51.5436C38.4719 49.8534 38.546 48.1682 38.5505 46.4691C38.5508 46.3794 38.5512 46.2897 38.5515 46.1972C38.5533 45.721 38.5545 45.2448 38.555 44.7686C38.5555 44.3846 38.5572 44.0006 38.56 43.6167C38.5741 41.6042 38.5531 39.6023 38.3802 37.5962C38.3681 37.4395 38.356 37.2828 38.3435 37.1213C38.2869 36.2718 38.2869 36.2718 37.8594 35.5713C37.7596 35.5001 37.6599 35.4289 37.5571 35.3555C36.8944 34.579 36.5175 33.877 36.5316 32.8357C36.6341 32.3565 36.944 32.1451 37.315 31.8438Z" fill="#292D43"/>
<path id="Vector_13" d="M18.7872 36.6875C19.0148 37.1427 18.6827 37.7039 18.5341 38.1681C18.1352 39.8616 18.5032 41.7925 18.6661 43.499C18.9536 46.5318 18.9536 46.5318 18.9083 47.707C18.7605 47.7189 18.6127 47.7308 18.4604 47.743C16.6362 47.9028 14.7477 48.1556 13.4137 49.5461C12.5851 50.6553 12.5344 51.9014 12.5206 53.2395C12.5172 53.4085 12.5136 53.5774 12.5097 53.7463C12.5012 54.1551 12.4948 54.5638 12.4903 54.9727C12.0729 54.9727 12.0395 54.9335 11.7496 54.6614C11.6406 54.5598 11.6406 54.5598 11.5293 54.4562C11.4518 54.3819 11.3744 54.3075 11.2945 54.231C11.1734 54.1158 11.1734 54.1158 11.0498 53.9984C9.67981 52.6838 8.45854 51.295 7.33776 49.7617C7.1763 49.5426 7.01078 49.3273 6.84387 49.1124C6.12257 48.1352 6.12257 48.1352 6.14805 47.4875C6.61012 45.2625 7.89408 43.3617 9.46299 41.7734C9.53199 41.6957 9.60098 41.618 9.67207 41.5379C10.9944 40.0799 12.8913 39.3329 14.6497 38.5555C15.4042 38.2158 16.147 37.8514 16.8906 37.4886C17.5139 37.1871 18.1346 36.9193 18.7872 36.6875Z" fill="#2D3250"/>
<path id="Vector_14" d="M24.2365 41.2969C24.2764 41.2969 24.3164 41.2969 24.3576 41.2969C24.3588 41.3714 24.3601 41.4459 24.3614 41.5226C24.3747 42.3126 24.3885 43.1026 24.4027 43.8926C24.4078 44.1857 24.4129 44.4787 24.4178 44.7718C24.4796 48.5549 24.4796 48.5549 24.789 52.324C24.7987 52.4092 24.8083 52.4944 24.8183 52.5823C25.0638 54.7124 25.4468 56.8207 25.8344 58.9288C25.8528 59.0295 25.8712 59.1303 25.8901 59.2341C25.9751 59.689 26.0687 60.1367 26.1876 60.584C26.2774 60.9611 26.319 61.2572 26.2951 61.6406C24.4346 61.2733 22.6411 60.7986 20.8459 60.1875C20.8337 60.05 20.8215 59.9125 20.809 59.7708C20.749 59.2328 20.6573 58.7027 20.5573 58.171C20.5409 58.0836 20.5245 57.9961 20.5076 57.906C20.4723 57.7182 20.437 57.5304 20.4017 57.3425C20.0144 55.2709 19.6923 53.1926 19.4003 51.1055C19.3815 50.9725 19.3627 50.8396 19.3434 50.7027C19.2899 50.3224 19.2373 49.942 19.1851 49.5615C19.1692 49.4484 19.1534 49.3354 19.137 49.2188C18.9728 47.9975 18.9962 47.2667 19.756 46.2617C20.5564 45.3966 21.4026 44.9766 22.588 44.9146C23.2348 44.8991 23.5921 44.9571 24.2365 45.1719C24.2365 43.8931 24.2365 42.6144 24.2365 41.2969Z" fill="#2D3250"/>
<path id="Vector_15" d="M24.6 37.7812C24.7962 38.0395 24.987 38.2998 25.1723 38.566C26.4274 40.3556 27.9269 41.3295 29.8458 42.3171C30.1329 42.4824 30.3339 42.6053 30.5336 42.8672C30.6526 43.7299 30.395 44.2154 29.9281 44.9258C29.8806 44.9997 29.8332 45.0735 29.7843 45.1496C28.2112 47.5878 28.2112 47.5878 27.0441 48.0217C26.0742 48.2143 25.2284 48.1717 24.3578 47.7109C24.3549 46.7876 24.3528 45.8642 24.3515 44.9408C24.3509 44.5118 24.35 44.0828 24.3486 43.6537C24.3383 40.3701 24.3383 40.3701 24.4112 38.9491C24.416 38.8562 24.4207 38.7632 24.4255 38.6674C24.4626 38.0559 24.4626 38.0559 24.6 37.7812Z" fill="#62626B"/>
<path id="Vector_16" d="M38.2785 37.7812C38.9346 38.4373 38.6564 40.1935 38.6586 41.0831C38.6584 41.2427 38.6581 41.4024 38.6579 41.5668C38.658 41.7373 38.6581 41.9078 38.6582 42.0782C38.6584 42.4314 38.6582 42.7846 38.6576 43.1378C38.6569 43.5903 38.6573 44.0428 38.658 44.4953C38.6584 44.8455 38.6583 45.1957 38.658 45.5459C38.6579 45.7129 38.658 45.8799 38.6583 46.0469C38.6586 46.2789 38.6581 46.511 38.6575 46.743C38.6574 46.8747 38.6573 47.0065 38.6572 47.1423C38.6418 47.4687 38.6418 47.4687 38.5207 47.832C37.7412 48.2537 36.7086 48.2119 35.8741 47.9768C34.3533 47.293 33.4037 45.5876 32.5871 44.1992C32.44 43.758 32.3347 43.3182 32.466 42.8672C32.966 42.3718 33.497 42.0907 34.131 41.8C34.9611 41.4014 35.659 40.9497 36.341 40.3242C36.4264 40.2485 36.5118 40.1728 36.5998 40.0948C37.3079 39.4325 37.8451 38.6481 38.2785 37.7812Z" fill="#5B5B60"/>
<path id="Vector_17" d="M42.7617 22.2812C43.0328 22.5523 43.096 22.7408 43.2234 23.0986C43.5256 23.8697 43.9047 24.4479 44.6614 24.855C45.2939 25.059 45.9771 25.0481 46.6367 25.0664C46.5724 26.3374 46.4451 27.649 45.668 28.6992C45.0215 29.2028 44.2969 29.4815 43.5261 29.7361C43.4194 29.7722 43.3127 29.8083 43.2027 29.8455C42.8947 29.9491 42.5861 30.0508 42.2773 30.1523C42.1323 30.2015 41.9873 30.2507 41.8379 30.3013C41.127 30.5336 40.4149 30.7076 39.6814 30.8486C39.6011 30.8641 39.5209 30.8796 39.4381 30.8956C38.9663 30.9806 38.5181 31.0148 38.0391 31C38.0964 30.9043 38.1536 30.8086 38.2127 30.71C39.325 28.8127 40.1775 26.8914 40.8455 24.7944C40.8819 24.6814 40.9182 24.5684 40.9557 24.4519C41.034 24.2013 41.1082 23.9493 41.1795 23.6966C41.2182 23.5659 41.2569 23.4352 41.2968 23.3006C41.3303 23.1815 41.3639 23.0625 41.3984 22.9398C41.5508 22.6445 41.5508 22.6445 41.8641 22.4712C42.165 22.3787 42.4493 22.317 42.7617 22.2812Z" fill="#312D2C"/>
<path id="Vector_18" d="M26.2891 32.5781C26.4139 32.6755 26.5388 32.7729 26.6675 32.8733C28.1187 33.9553 29.5817 34.8628 31.375 35.2422C31.3089 36.0143 31.1742 36.708 30.936 37.4446C30.9039 37.5442 30.8718 37.6439 30.8388 37.7466C30.3754 39.1377 29.7638 40.4885 28.7109 41.5391C28.3477 41.6602 28.3477 41.6602 28.0411 41.5069C26.5746 40.5266 25.3914 39.3806 24.5938 37.7852C24.5952 37.4872 24.6053 37.1965 24.624 36.8997C24.6321 36.7403 24.6403 36.5809 24.6486 36.4167C24.7424 35.7821 25.0123 35.4128 25.4414 34.9546C26.0651 34.2365 26.2282 33.5032 26.2891 32.5781Z" fill="#FB9460"/>
<path id="Vector_19" d="M50.3459 47.2769C50.8605 47.4074 51.2081 47.7298 51.598 48.0753C51.745 48.1865 51.745 48.1865 51.895 48.3C52.8509 49.1048 53.7307 50.3942 53.9513 51.6419C53.8746 52.0924 53.6034 52.3406 53.2933 52.6542C53.2323 52.718 53.1712 52.7818 53.1083 52.8475C52.9854 52.9755 52.8618 53.1029 52.7375 53.2295C52.5932 53.3765 52.4511 53.5255 52.3094 53.675C51.6773 54.3308 50.9787 54.8967 50.266 55.462C50.1607 55.547 50.0555 55.6319 49.9471 55.7194C49.85 55.7968 49.753 55.8742 49.6529 55.954C49.5666 56.0228 49.4803 56.0917 49.3913 56.1626C49.1761 56.3097 49.1761 56.3097 48.9339 56.3097C48.9199 55.2486 48.9091 54.1876 48.9026 53.1264C48.8994 52.6337 48.8951 52.141 48.8882 51.6482C48.8817 51.1724 48.878 50.6967 48.8765 50.2208C48.8754 50.0396 48.8732 49.8583 48.8699 49.6771C48.8422 48.0782 48.8422 48.0782 49.2239 47.6011C49.6386 47.2694 49.8331 47.2427 50.3459 47.2769Z" fill="#292D43"/>
<path id="Vector_20" d="M41.5469 16.1094C42.4048 16.3179 43.0164 16.6551 43.6055 17.3203C44.2133 18.327 43.9999 19.35 43.7568 20.4385C43.7379 20.5258 43.7189 20.6131 43.6993 20.7031C43.5352 21.3836 43.2861 21.9398 42.72 22.3835C42.3298 22.556 41.9698 22.607 41.5469 22.6484C41.5665 22.4903 41.5862 22.3322 41.6064 22.1693C41.668 21.6129 41.6856 21.0655 41.6841 20.5061C41.6842 20.4105 41.6843 20.3149 41.6844 20.2164C41.6845 20.016 41.6843 19.8157 41.6838 19.6153C41.6831 19.3111 41.6838 19.0069 41.6845 18.7027C41.6844 18.5067 41.6843 18.3106 41.6841 18.1145C41.6843 18.0249 41.6845 17.9353 41.6848 17.843C41.6822 17.2556 41.6294 16.6911 41.5469 16.1094Z" fill="#FDA97A"/>
<path id="Vector_21" d="M21.4513 16.2273C21.4317 16.3264 21.412 16.4255 21.3918 16.5276C21.3224 17.0081 21.3129 17.4781 21.3142 17.9623C21.314 18.0579 21.3139 18.1534 21.3138 18.2519C21.3137 18.4534 21.314 18.6549 21.3145 18.8564C21.3151 19.1612 21.3145 19.4659 21.3137 19.7707C21.3133 20.7372 21.3279 21.685 21.4513 22.6453C20.6639 22.6045 20.31 22.4858 19.756 21.9187C19.5093 21.513 19.4241 21.0935 19.3246 20.6321C19.2201 20.1099 19.2201 20.1099 19.0295 19.6179C18.9598 18.8224 18.9429 18.0046 19.3927 17.3171C20.0467 16.632 20.4891 16.2064 21.4513 16.2273Z" fill="#FA935F"/>
<path id="Vector_22" d="M24.5994 37.7812C24.7956 38.0395 24.9864 38.2998 25.1717 38.566C26 39.747 26.8468 40.6371 28.1002 41.3644C28.1837 41.4207 28.2672 41.4771 28.3533 41.5352C28.3533 41.6151 28.3533 41.695 28.3533 41.7773C28.2537 41.8025 28.1541 41.8276 28.0515 41.8535C26.5953 42.2554 25.5303 42.8971 24.7205 44.1992C24.6349 44.399 24.5528 44.6005 24.4783 44.8047C24.4383 44.8047 24.3984 44.8047 24.3572 44.8047C24.3342 40.3191 24.3342 40.3191 24.4102 38.9089C24.4173 38.7736 24.4173 38.7736 24.4246 38.6356C24.4612 38.0575 24.4612 38.0575 24.5994 37.7812Z" fill="#5B5B60"/>
<path id="Vector_23" d="M36.951 32.2109C37.3142 32.332 37.3142 32.332 37.4736 32.6456C37.8528 33.6641 38.1831 34.6271 38.1619 35.7227C37.4293 35.3779 36.9991 34.7522 36.6634 34.0349C36.5647 33.5517 36.501 33.0633 36.5877 32.5742C36.7717 32.3599 36.7717 32.3599 36.951 32.2109Z" fill="#2D3250"/>
<path id="Vector_24" d="M25.8125 32.2109C25.9723 32.2909 26.1322 32.3708 26.2969 32.4531C26.3872 33.3968 26.2361 34.0903 25.6914 34.875C25.4229 35.1535 25.1556 35.3692 24.8438 35.6016C24.8807 35.3182 24.9213 35.0363 24.9648 34.7539C24.9783 34.6618 24.9917 34.5697 25.0055 34.4748C25.1446 33.6536 25.4422 32.9543 25.8125 32.2109Z" fill="#2D3250"/>
</g>
<defs>
<clipPath id="clip0_197_165">
<rect width="62" height="62" fill="white" transform="translate(0.5)"/>
</clipPath>
</defs>
</svg>
