<svg width="63" height="62" viewBox="0 0 63 62" fill="none" xmlns="http://www.w3.org/2000/svg">
<g id="Simplification" clip-path="url(#clip0_197_144)">
<path id="Vector" d="M32.0678 -0.0250822C32.2166 -0.0263399 32.2166 -0.0263399 32.3684 -0.0276229C32.6881 -0.0297102 33.0077 -0.0304794 33.3274 -0.0307585C33.4901 -0.0310018 33.4901 -0.0310018 33.6561 -0.03125C34.931 -0.0308355 36.1945 -0.0171084 37.4597 0.15845C37.5629 0.172694 37.666 0.186938 37.7722 0.201614C38.2989 0.287653 38.6897 0.409377 39.1323 0.726077C39.0669 1.18455 38.876 1.39863 38.5269 1.69483C38.447 1.69483 38.367 1.69483 38.2847 1.69483C38.2847 1.81471 38.2847 1.93459 38.2847 2.05811C38.3567 2.0759 38.4286 2.0937 38.5028 2.11203C40.0013 2.51754 41.1564 3.28406 42.2091 4.42216C42.5371 4.72659 42.9624 4.86168 43.3706 5.03247C45.1095 5.78422 46.7977 6.63655 48.3355 7.74951C48.4086 7.80224 48.4817 7.85496 48.557 7.90928C50.8187 9.54829 52.9135 11.3488 54.6324 13.562C54.7542 13.7139 54.8761 13.8657 54.998 14.0175C59.1359 19.2265 61.2357 25.6674 61.2093 32.2861C61.209 32.4037 61.2087 32.5212 61.2085 32.6423C61.2023 34.3773 61.1602 36.076 60.8081 37.7808C60.7841 37.8998 60.76 38.0188 60.7352 38.1415C59.9217 42.0533 58.4361 45.9082 56.0855 49.1636C56.0258 49.247 55.9662 49.3304 55.9048 49.4163C55.1717 50.4354 54.3986 51.3927 53.5425 52.312C53.4007 52.4755 53.2594 52.6395 53.1187 52.804C52.2524 53.7934 51.305 54.6472 50.273 55.4604C50.0936 55.6044 50.0936 55.6044 49.9106 55.7514C47.3557 57.7679 44.4965 59.3272 41.4331 60.4253C41.3409 60.4586 41.2487 60.492 41.1536 60.5263C38.0534 61.627 34.8235 62.0501 31.5488 62.0374C31.372 62.037 31.372 62.037 31.1916 62.0367C29.4938 62.0313 27.8427 61.9816 26.1753 61.6362C26.0725 61.6167 25.9697 61.5972 25.8638 61.5772C19.1084 60.2889 12.6199 56.5681 8.37453 51.1011C8.27775 50.9793 8.18097 50.8576 8.08126 50.7321C5.98433 48.0779 4.35707 45.1122 3.28859 41.8979C3.25496 41.7974 3.22132 41.6968 3.18666 41.5932C2.69764 40.1072 2.32286 38.5998 2.07766 37.0542C2.05601 36.9186 2.03436 36.7829 2.01205 36.6432C1.81211 35.2437 1.79214 33.8571 1.79763 32.4451C1.79789 32.3244 1.79815 32.2037 1.79842 32.0793C1.80451 30.3249 1.84059 28.6059 2.19875 26.8823C2.23484 26.704 2.23484 26.704 2.27166 26.5221C3.25791 21.7792 5.26052 17.2919 8.37453 13.562C8.43194 13.4923 8.48934 13.4226 8.54849 13.3508C9.81195 11.8198 11.1641 10.4228 12.7339 9.20264C12.8529 9.10726 12.9718 9.01189 13.0943 8.91362C15.9385 6.65032 19.2076 4.92751 22.6891 3.87845C23.6116 3.60618 23.6116 3.60618 24.2832 2.94361C26.0726 0.762263 29.3699 -0.00969765 32.0678 -0.0250822Z" fill="#2D3250"/>
<path id="Vector_2" d="M42.3948 4.71875C46.8952 5.45767 51.9109 10.0636 54.6252 13.5586C54.7471 13.7105 54.8689 13.8623 54.9909 14.0141C59.1288 19.2231 61.2286 25.6639 61.2021 32.2827C61.2019 32.4002 61.2016 32.5178 61.2014 32.6389C61.1952 34.3739 61.1531 36.0726 60.801 37.7773C60.777 37.8964 60.7529 38.0154 60.7281 38.1381C60.0823 41.2432 58.9536 44.0409 57.5315 46.8594C57.4516 46.8594 57.3716 46.8594 57.2893 46.8594C57.2453 46.7409 57.2013 46.6224 57.1559 46.5004C56.3427 44.3587 55.2638 43.144 53.1642 42.1692C50.4338 40.9889 47.5189 40.1688 44.6911 39.2614C44.5655 39.2209 44.44 39.1805 44.3107 39.1388C44.0735 39.0623 43.8362 38.9862 43.5987 38.9107C43.4403 38.8595 43.4403 38.8595 43.2786 38.8073C43.1865 38.7778 43.0943 38.7483 42.9993 38.7179C42.7581 38.625 42.7581 38.625 42.3948 38.3828C42.3498 38.2604 42.3049 38.1381 42.2585 38.012C41.7074 36.6579 39.8924 35.5378 38.6409 34.8711C38.4411 34.8311 38.2413 34.7912 38.0354 34.75C37.9555 34.1506 37.8756 33.5512 37.7932 32.9336C37.695 33.0374 37.5968 33.1412 37.4957 33.2482C35.7421 35.0704 35.7421 35.0704 34.5237 35.4766C33.5804 35.0785 32.8305 34.3588 32.1018 33.6602C32.0197 33.5857 31.9376 33.5112 31.853 33.4345C30.0836 31.7753 28.9302 29.4536 28.3479 27.1211C28.3223 27.0273 28.2967 26.9335 28.2703 26.8368C28.0867 26.072 28.072 25.3039 28.0408 24.5216C27.9955 23.5505 27.8327 22.6126 27.6608 21.6575C27.578 21.1794 27.5269 20.703 27.5002 20.2188C27.4938 20.1065 27.4874 19.9943 27.4808 19.8786C27.4443 18.6565 27.637 17.5941 28.2363 16.5249C28.6699 15.6772 28.6816 14.9277 28.6658 13.99C28.6488 12.3837 28.7897 10.9096 29.9221 9.68359C29.9714 9.61538 30.0208 9.54716 30.0716 9.47688C30.4154 9.22512 30.739 9.2956 31.1558 9.31274C31.8528 9.34029 32.4092 9.26967 33.0706 9.07812C34.8373 8.59646 36.8419 8.13552 38.5349 9.09326C39.5997 9.8159 40.1366 10.7779 40.4073 12.0169C40.4851 12.532 40.4774 13.0431 40.4786 13.5632C40.4829 14.9103 40.5185 15.9559 41.2335 17.111C41.4964 17.5516 41.537 17.8959 41.5471 18.4023C41.6121 18.3624 41.677 18.3224 41.7439 18.2812C42.0968 18.1327 42.3789 18.1429 42.7581 18.1602C42.7538 18.0921 42.7496 18.024 42.7453 17.9539C42.6649 15.457 43.3205 12.8369 44.3818 10.5908C44.7405 9.80691 44.8366 9.23552 44.5399 8.39508C44.4703 8.24837 44.3985 8.10268 44.3247 7.95801C44.2866 7.88019 44.2486 7.80238 44.2093 7.72221C43.6863 6.66941 43.1005 5.65974 42.3948 4.71875Z" fill="#A5AFDA"/>
<path id="Vector_3" d="M23.7535 3.75217C23.6434 3.94443 23.5322 4.13604 23.4205 4.32736C23.3277 4.48752 23.3277 4.48752 23.2331 4.65091C22.8306 5.26022 22.4862 5.49983 21.7933 5.72751C20.3957 6.24239 19.5904 7.12402 18.7962 8.35373C18.4604 9.30186 18.7431 10.169 19.0535 11.0859C19.7676 13.3059 20.4564 15.8137 20.3628 18.1623C20.1343 18.2335 20.1343 18.2335 19.9012 18.3061C19.5626 18.4362 19.405 18.5141 19.1519 18.7829C18.8356 19.6922 19.0791 20.4906 19.4319 21.3486C19.6937 22.0133 19.9267 22.6531 20.0752 23.3542C20.2069 23.9426 20.3687 24.2151 20.8472 24.5803C20.8872 24.6203 20.9271 24.6602 20.9683 24.7014C21.1315 24.7293 21.2957 24.7512 21.4603 24.7695C21.6176 24.787 21.775 24.8045 21.9371 24.8225C21.9549 24.9633 21.9727 25.1041 21.991 25.2491C22.3255 27.7097 23.0593 30.116 24.6768 32.0503C25.1788 32.6996 25.1462 33.2236 25.0486 34.0176C24.9117 34.6212 24.9117 34.6212 24.7222 34.8733C24.5209 34.916 24.3189 34.9559 24.1168 34.9944C23.8343 35.1682 23.5726 35.3429 23.3069 35.5393C23.2328 35.5932 23.1587 35.6472 23.0823 35.7028C21.5919 36.7405 21.5919 36.7405 20.631 38.2054C20.4839 38.5061 20.4839 38.5061 20.2001 38.6652C20.0826 38.7039 19.965 38.7425 19.8439 38.7823C19.648 38.8484 19.648 38.8484 19.4482 38.9159C19.308 38.9605 19.1677 39.0051 19.0232 39.051C18.8068 39.1228 18.8068 39.1228 18.586 39.196C17.7692 39.4646 16.9487 39.7146 16.1214 39.9486C10.8489 41.2618 10.8489 41.2618 6.7965 44.4123C6.36607 45.2027 5.97541 45.9996 5.7105 46.8615C5.63058 46.8615 5.55066 46.8615 5.46831 46.8615C3.85563 43.7404 2.6263 40.5449 2.07769 37.0529C2.0444 36.8446 2.0444 36.8446 2.01043 36.6321C1.81054 35.2363 1.79219 33.8522 1.79766 32.4438C1.79792 32.3231 1.79818 32.2024 1.79845 32.0781C1.80454 30.3237 1.84062 28.6046 2.19878 26.8811C2.23487 26.7028 2.23487 26.7028 2.27169 26.5209C3.25794 21.778 5.26055 17.2906 8.37456 13.5608C8.43197 13.4911 8.48937 13.4214 8.54852 13.3496C9.81198 11.8185 11.1642 10.4216 12.7339 9.20139C12.9124 9.05832 12.9124 9.05832 13.0944 8.91237C14.965 7.42375 21.4034 2.57714 23.7535 3.75217Z" fill="#A5AFDA"/>
<path id="Vector_4" d="M33.4013 -0.0452878C33.5068 -0.0448451 33.6122 -0.0444024 33.7209 -0.0439463C38.0834 -0.0224845 38.0834 -0.0224845 39.1306 0.726685C39.0651 1.18516 38.8742 1.39924 38.5251 1.69543C38.4452 1.69543 38.3653 1.69543 38.2829 1.69543C38.2829 1.81532 38.2829 1.9352 38.2829 2.05872C38.3549 2.07651 38.4269 2.09431 38.501 2.11264C40.9731 2.78161 42.595 4.58614 43.8698 6.73218C44.9801 8.76192 44.9801 8.76192 44.822 9.80872C44.7027 10.1791 44.5415 10.5244 44.3755 10.8759C43.3486 13.1876 42.9481 15.6527 42.7634 18.1642C42.3638 18.2441 41.9642 18.324 41.5525 18.4064C41.5075 18.2365 41.4626 18.0667 41.4162 17.8917C41.2707 17.3925 41.0754 16.9813 40.8169 16.5313C40.3932 15.6974 40.3668 14.9691 40.3794 14.047C40.3858 12.3647 40.2624 10.9016 39.0771 9.61998C38.1351 8.75498 36.8662 8.67744 35.6506 8.6834C34.6912 8.72733 33.7494 9.00538 32.8318 9.27497C32.2607 9.43478 31.7887 9.44612 31.1914 9.40002C30.5592 9.38285 30.5592 9.38285 29.9979 9.63039C29.0102 10.7276 28.8193 12.0627 28.8164 13.4785C28.8121 14.8527 28.8011 15.9135 28.0694 17.1008C27.7519 17.6341 27.675 18.1582 27.6267 18.7697C27.6183 18.8725 27.6098 18.9754 27.6011 19.0814C27.5497 20.4686 27.8068 21.9019 28.06 23.2634C28.1154 23.6434 28.1294 24.0134 28.14 24.3969C28.1769 25.6078 28.3615 26.6955 28.7165 27.8517C28.7602 27.9947 28.8039 28.1377 28.849 28.285C29.7736 31.0712 31.6426 33.8369 34.2868 35.2384C34.6356 35.3991 34.6356 35.3991 34.9079 35.2507C35.7147 34.7612 36.3848 34.1867 37.072 33.5431C37.3522 33.298 37.6357 33.0573 37.9197 32.8165C37.9606 33.1242 38.0009 33.432 38.0407 33.7399C38.0523 33.8262 38.0639 33.9125 38.0758 34.0014C38.2998 35.7459 37.6384 37.2421 36.5876 38.629C35.9243 39.453 35.2245 40.1703 34.3218 40.7363C33.9881 40.9693 33.7266 41.2474 33.4392 41.5353C33.1951 41.7261 32.9478 41.9128 32.6975 42.0953C32.1299 42.5072 32.1299 42.5072 31.6228 42.9884C31.2434 42.8138 30.9298 42.602 30.6011 42.3451C30.5113 42.2756 30.4215 42.2062 30.3291 42.1346C30.0486 41.8986 30.0486 41.8986 29.77 41.611C29.3765 41.2284 28.9496 40.9235 28.5046 40.6044C26.8481 39.3854 25.8813 37.9674 25.0837 36.0861C25.0161 35.9315 25.0161 35.9315 24.947 35.7739C24.7418 35.2034 24.8053 34.5902 24.912 34.0029C25.0305 33.2425 25.0602 32.7328 24.5932 32.0891C24.485 31.9518 24.3762 31.8151 24.2668 31.6789C22.7909 29.8274 21.8824 27.1873 21.9353 24.8243C21.7879 24.8343 21.6406 24.8443 21.4887 24.8546C21.1025 24.8532 20.9731 24.8281 20.626 24.6276C20.0677 24.0215 19.9318 23.3639 19.7509 22.5827C19.6166 22.0952 19.4359 21.6378 19.2485 21.1688C18.9717 20.4584 18.7848 19.8967 18.9079 19.1329C19.1243 18.6922 19.2697 18.4722 19.7026 18.2399C19.9978 18.1642 19.9978 18.1642 20.3611 18.1642C20.0551 15.6368 19.6332 13.1643 18.8153 10.747C18.5583 9.96358 18.3875 9.22359 18.6388 8.41661C19.5553 6.88289 20.6928 5.90301 22.3922 5.34669C22.9885 5.03808 23.2649 4.40909 23.5852 3.84485C24.5539 2.22412 26.0798 1.29991 27.831 0.696411C27.912 0.66805 27.9931 0.63969 28.0765 0.610469C29.8236 0.0465055 31.5803 -0.0620089 33.4013 -0.0452878Z" fill="#FEA97B"/>
<path id="Vector_5" d="M24.6017 34.7665C24.842 34.8772 24.842 34.8772 24.9612 35.1695C24.9918 35.2978 25.0224 35.4262 25.0539 35.5584C25.7151 37.9112 27.1799 39.6159 29.172 40.9782C29.5003 41.215 29.7667 41.4901 30.049 41.7795C30.2345 41.9224 30.4213 42.0635 30.609 42.2034C31.3374 42.7639 31.3374 42.7639 31.5021 43.2327C31.4649 43.3029 31.4276 43.373 31.3893 43.4453C31.2202 43.8005 31.2282 44.0764 31.2262 44.4695C31.2249 44.624 31.2235 44.7785 31.2221 44.9377C31.2218 45.1087 31.2216 45.2796 31.2213 45.4506C31.2202 45.6308 31.219 45.811 31.2176 45.9912C31.2143 46.4803 31.2125 46.9694 31.2109 47.4585C31.209 47.9697 31.2058 48.4808 31.2027 48.992C31.197 49.96 31.1926 50.9279 31.1886 51.8958C31.1839 52.9978 31.1779 54.0998 31.1718 55.2018C31.1593 57.4686 31.1485 59.7354 31.1388 62.0022C30.7702 62.0038 30.4017 62.0049 30.0331 62.0058C29.9293 62.0063 29.8255 62.0068 29.7186 62.0073C28.979 62.0087 28.2605 61.9713 27.5287 61.8584C27.3633 61.834 27.3633 61.834 27.1946 61.809C19.9234 60.6837 12.9272 56.9683 8.37321 51.1038C8.22804 50.9211 8.22804 50.9211 8.07994 50.7348C7.31419 49.7643 6.61955 48.7529 5.95134 47.7131C5.87782 47.6068 5.80429 47.5005 5.72854 47.391C5.55745 47.0459 5.57285 46.9307 5.69401 46.5703C6.43551 44.4594 7.4388 43.267 9.46306 42.2639C11.032 41.5385 12.6546 40.9662 14.2917 40.4172C14.5071 40.3442 14.7225 40.271 14.9378 40.1978C16.2574 39.7504 17.5805 39.3211 18.9207 38.939C19.1033 38.8844 19.2859 38.8297 19.4684 38.7749C19.5622 38.7495 19.6561 38.7242 19.7527 38.698C20.0196 38.6155 20.2449 38.5359 20.4826 38.3889C20.7065 37.9816 20.7065 37.9816 20.8459 37.5413C21.5008 36.6893 23.4557 34.7177 24.6017 34.7665Z" fill="#2D3250"/>
<path id="Vector_6" d="M38.7719 9.25682C39.7846 10.0736 40.2653 11.0801 40.4573 12.3504C40.4756 12.756 40.4777 13.1599 40.4786 13.5659C40.4829 14.913 40.5185 15.9586 41.2335 17.1137C41.4964 17.5543 41.537 17.8986 41.5471 18.4051C41.616 18.3659 41.6848 18.3267 41.7557 18.2863C42.2052 18.0851 42.638 18.1084 43.1213 18.1629C43.5429 18.3278 43.6896 18.4723 43.9463 18.844C44.2725 19.7713 44.0713 20.5363 43.689 21.4097C43.4218 22.051 43.1881 22.6661 43.0381 23.3472C42.8791 24.0524 42.6379 24.4187 42.0315 24.823C41.7841 24.8467 41.7841 24.8467 41.5244 24.8382C41.3721 24.8332 41.2197 24.8282 41.0627 24.823C41.0568 24.9125 41.0509 25.0019 41.0448 25.0941C40.7734 28.7759 39.1162 31.8623 36.4155 34.3418C35.8536 34.8244 35.2281 35.2445 34.5237 35.4793C33.5804 35.0812 32.8305 34.3615 32.1018 33.6629C32.0197 33.5884 31.9376 33.514 31.853 33.4373C30.0836 31.778 28.9302 29.4563 28.3479 27.1238C28.3223 27.03 28.2967 26.9362 28.2703 26.8395C28.0867 26.0747 28.072 25.3066 28.0408 24.5243C27.9955 23.5533 27.8327 22.6154 27.6608 21.6602C27.578 21.1821 27.5269 20.7057 27.5002 20.2215C27.4938 20.1092 27.4874 19.997 27.4808 19.8814C27.4443 18.6592 27.637 17.5968 28.2363 16.5276C28.6699 15.68 28.6816 14.9304 28.6658 13.9927C28.6488 12.3864 28.7897 10.9124 29.9221 9.68632C29.9714 9.61811 30.0208 9.54989 30.0716 9.47961C30.4154 9.22785 30.739 9.29833 31.1558 9.31547C31.8528 9.34302 32.4092 9.2724 33.0706 9.08085C34.925 8.57526 37.062 8.0964 38.7719 9.25682Z" fill="#FEC6AA"/>
<path id="Vector_7" d="M23.7539 3.75257C23.6438 3.94483 23.5326 4.13644 23.4209 4.32776C23.3282 4.48792 23.3282 4.48792 23.2336 4.65131C22.8311 5.26062 22.4867 5.50023 21.7937 5.72791C20.3962 6.24279 19.5908 7.12442 18.7966 8.35413C18.4608 9.30226 18.7436 10.1694 19.054 11.0863C19.7681 13.3063 20.4568 15.8141 20.3633 18.1627C20.1348 18.2339 20.1348 18.2339 19.9016 18.3065C19.563 18.4366 19.4054 18.5145 19.1523 18.7833C18.8361 19.6926 19.0795 20.491 19.4324 21.349C19.6941 22.0137 19.9271 22.6535 20.0757 23.3546C20.2074 23.943 20.3692 24.2155 20.8477 24.5807C20.8876 24.6207 20.9276 24.6606 20.9688 24.7018C21.1319 24.7297 21.2962 24.7516 21.4607 24.7699C21.618 24.7874 21.7754 24.8049 21.9375 24.8229C21.9553 24.9637 21.9731 25.1045 21.9914 25.2495C22.3259 27.7101 23.0597 30.1164 24.6772 32.0507C25.1792 32.7 25.1466 33.224 25.049 34.018C24.9122 34.6216 24.9122 34.6216 24.7227 34.8737C24.5213 34.9164 24.3194 34.9563 24.1172 34.9948C23.8347 35.1686 23.573 35.3433 23.3074 35.5397C23.2332 35.5936 23.1591 35.6476 23.0827 35.7032C21.5924 36.7409 21.5924 36.7409 20.6315 38.2058C20.4844 38.5065 20.4844 38.5065 20.2005 38.6656C20.083 38.7043 19.9655 38.7429 19.8444 38.7827C19.6485 38.8488 19.6485 38.8488 19.4486 38.9163C19.3084 38.9609 19.1682 39.0055 19.0237 39.0514C18.8072 39.1232 18.8072 39.1232 18.5864 39.1964C17.7697 39.465 16.9491 39.715 16.1219 39.949C10.8494 41.2622 10.8494 41.2622 6.79694 44.4128C6.3665 45.2031 5.97585 46 5.71094 46.8619C5.63102 46.8619 5.55109 46.8619 5.46875 46.8619C5.25034 46.4167 5.03284 45.971 4.81613 45.5249C4.7425 45.3737 4.66863 45.2225 4.59452 45.0715C4.18188 44.2304 3.80007 43.4022 3.53125 42.5026C5.75062 40.0869 8.6145 38.4764 11.5636 37.1188C11.8037 37.0082 12.0437 36.8973 12.2837 36.7865C12.602 36.6395 12.921 36.4939 13.2404 36.3493C15.1731 35.4663 17.1601 34.3445 17.9868 32.2777C18.282 30.595 17.7189 29.138 17.0408 27.6156C16.0542 25.3908 15.2937 23.1313 16.0039 20.7133C16.5552 18.7973 16.3328 16.9444 15.4287 15.1732C15.0399 14.4994 14.5702 13.9097 14.0664 13.319C13.9993 13.2356 13.9322 13.1523 13.863 13.0664C13.1079 12.1524 12.1652 11.4008 11.1602 10.776C11.343 10.3204 11.6038 10.0947 11.9851 9.79212C12.1055 9.69659 12.2258 9.60105 12.3498 9.50263C12.4132 9.45307 12.4767 9.40351 12.542 9.35244C12.7291 9.20588 12.9146 9.05722 13.1 8.90851C14.9757 7.42683 21.4001 2.57567 23.7539 3.75257Z" fill="#A5AFDA"/>
<path id="Vector_8" d="M42.3956 4.71875C45.8353 5.28352 49.2785 8.30234 51.8409 10.5312C51.4523 10.9246 51.0568 11.3051 50.6451 11.6741C50.5392 11.7694 50.4334 11.8648 50.3244 11.9631C50.0879 12.1708 49.848 12.3655 49.6006 12.5596C48.2509 13.7219 46.8986 15.7876 46.7288 17.5899C46.7137 17.9041 46.7091 18.2164 46.7095 18.531C46.7094 18.6439 46.7092 18.7568 46.709 18.8732C46.719 19.5298 46.788 20.0902 46.9971 20.7183C47.8144 23.1788 46.842 25.5235 45.9073 27.7923C45.7211 28.2496 45.5442 28.7101 45.3699 29.1721C45.34 29.2501 45.3102 29.328 45.2794 29.4084C44.8271 30.6126 44.7907 31.739 45.3018 32.9336C46.4352 34.9133 48.7524 35.9187 50.7517 36.795C53.3854 37.9531 55.7999 39.2844 58.0166 41.1301C58.0791 41.1819 58.1416 41.2336 58.206 41.2869C58.6786 41.6903 59.0764 42.141 59.4698 42.6211C58.8675 44.0576 58.2541 45.4783 57.5323 46.8594C57.4524 46.8594 57.3724 46.8594 57.2901 46.8594C57.2461 46.7409 57.202 46.6224 57.1567 46.5004C56.3434 44.3587 55.2646 43.144 53.165 42.1692C50.4346 40.9889 47.5197 40.1688 44.6918 39.2614C44.5663 39.2209 44.4408 39.1805 44.3115 39.1388C44.0743 39.0623 43.837 38.9862 43.5995 38.9107C43.4411 38.8595 43.4411 38.8595 43.2794 38.8073C43.1872 38.7778 43.0951 38.7483 43.0001 38.7179C42.7588 38.625 42.7588 38.625 42.3956 38.3828C42.3506 38.2604 42.3056 38.1381 42.2593 38.012C41.7082 36.6579 39.8932 35.5378 38.6416 34.8711C38.3156 34.7855 38.3156 34.7855 38.0362 34.75C37.6971 32.9823 37.6971 32.9823 38.1738 32.1872C38.4008 31.8578 38.6463 31.5439 38.8919 31.2283C39.4339 30.5314 39.7578 29.7476 40.0948 28.9375C40.1416 28.8346 40.1884 28.7318 40.2367 28.6258C40.7371 27.4305 40.864 26.0925 41.0635 24.8203C41.3047 24.7969 41.5459 24.7735 41.7871 24.7501C42.213 24.6617 42.3844 24.434 42.6377 24.0938C42.9471 23.4008 43.1409 22.6698 43.3582 21.9434C43.4731 21.5886 43.6076 21.2559 43.7579 20.915C44.056 20.189 44.0762 19.5882 43.8411 18.8413C43.5254 18.4135 43.2574 18.3295 42.7588 18.1602C42.6011 15.613 43.3011 12.8797 44.3826 10.5908C44.7412 9.80691 44.8374 9.23552 44.5407 8.39508C44.4711 8.24837 44.3993 8.10268 44.3255 7.95801C44.2874 7.88019 44.2493 7.80238 44.2101 7.72221C43.6871 6.66941 43.1013 5.65974 42.3956 4.71875Z" fill="#A5AFDA"/>
<path id="Vector_9" d="M33.4013 -0.0452878C33.5068 -0.0448451 33.6122 -0.0444024 33.7209 -0.0439463C38.0834 -0.0224845 38.0834 -0.0224845 39.1306 0.726685C39.0651 1.18516 38.8742 1.39924 38.5251 1.69543C38.4452 1.69543 38.3653 1.69543 38.2829 1.69543C38.2829 1.81532 38.2829 1.9352 38.2829 2.05872C38.3549 2.07651 38.4269 2.09431 38.501 2.11264C40.9731 2.78161 42.595 4.58614 43.8698 6.73218C44.9801 8.76192 44.9801 8.76192 44.822 9.80872C44.7027 10.1791 44.5415 10.5244 44.3755 10.8759C43.3486 13.1876 42.9481 15.6527 42.7634 18.1642C42.3638 18.2441 41.9642 18.324 41.5525 18.4064C41.5075 18.2365 41.4626 18.0667 41.4162 17.8917C41.2707 17.3925 41.0754 16.9813 40.8169 16.5313C40.3932 15.6974 40.3668 14.9691 40.3794 14.047C40.3858 12.3647 40.2624 10.9016 39.0771 9.61998C38.1351 8.75498 36.8662 8.67744 35.6506 8.6834C34.6844 8.72765 33.7522 9.0194 32.8238 9.27178C31.6079 9.59152 30.6344 9.47957 29.4521 9.08499C27.9708 8.59186 26.178 8.43436 24.7204 9.08215C23.7325 9.61411 23.157 10.4194 22.8371 11.4848C22.6603 12.1838 22.6421 12.8483 22.6406 13.5672C22.6355 15.1166 22.5074 16.1278 21.6931 17.4376C21.5795 17.7636 21.5121 18.0662 21.4509 18.4064C21.0913 18.3265 20.7316 18.2465 20.3611 18.1642C20.3419 18.0056 20.3227 17.847 20.3029 17.6836C20.0055 15.3186 19.5807 13.009 18.8153 10.747C18.5583 9.96358 18.3875 9.22359 18.6388 8.41661C19.5553 6.88289 20.6928 5.90301 22.3922 5.3467C22.9885 5.03808 23.2649 4.40909 23.5852 3.84485C24.5539 2.22412 26.0798 1.29991 27.831 0.696411C27.912 0.668051 27.9931 0.63969 28.0765 0.610469C29.8236 0.0465055 31.5803 -0.0620089 33.4013 -0.0452878Z" fill="#232024"/>
<path id="Vector_10" d="M20.6037 38.6256C20.751 38.9706 20.866 39.2975 20.9745 39.6549C21.468 41.1761 22.1224 42.6204 22.7834 44.0748C22.4523 44.4059 22.0718 44.4661 21.633 44.5895C20.0817 45.0531 18.6897 45.8647 17.8791 47.3141C17.5119 48.028 17.4365 48.6016 17.4304 49.4007C17.4292 49.4976 17.428 49.5945 17.4267 49.6944C17.4229 50.0141 17.4199 50.3339 17.4169 50.6536C17.4144 50.8756 17.4119 51.0975 17.4093 51.3194C17.4026 51.9031 17.3966 52.4868 17.3908 53.0705C17.3847 53.6663 17.378 54.2621 17.3713 54.8578C17.3583 56.0265 17.346 57.1952 17.3341 58.3639C15.2406 57.8877 13.1633 55.9255 11.6427 54.4889C11.4819 54.3495 11.3204 54.2107 11.1584 54.0726C10.1245 53.1677 9.22047 52.178 8.37321 51.0983C8.27596 50.976 8.17871 50.8538 8.07852 50.7279C7.3136 49.7576 6.61919 48.7468 5.95134 47.7076C5.87782 47.6013 5.80429 47.495 5.72854 47.3855C5.55745 47.0404 5.57285 46.9252 5.69401 46.5648C6.43551 44.4539 7.4388 43.2615 9.46306 42.2584C11.032 41.533 12.6546 40.9607 14.2917 40.4117C14.5071 40.3386 14.7225 40.2655 14.9378 40.1923C15.9466 39.8503 16.9569 39.5189 17.9765 39.2107C18.5674 39.0284 19.1478 38.8164 19.73 38.6081C20.1149 38.5057 20.2466 38.479 20.6037 38.6256Z" fill="#2D3250"/>
<path id="Vector_11" d="M32.9548 -0.00225355C32.5766 0.384043 32.1885 0.740906 31.7741 1.08759C30.5074 2.22973 29.5896 3.70259 29.3901 5.41811C29.3453 6.78178 29.7212 7.97626 30.2908 9.20087C29.7829 9.12233 29.291 9.0132 28.7922 8.89057C27.2633 8.56249 25.7329 8.53461 24.3269 9.29169C23.3273 10.1095 22.853 11.079 22.6618 12.3493C22.6435 12.7549 22.6415 13.1589 22.6406 13.5649C22.6355 15.1143 22.5074 16.1255 21.6931 17.4352C21.5795 17.7612 21.5121 18.0638 21.4509 18.404C21.0913 18.3241 20.7316 18.2442 20.3611 18.1618C20.3419 18.0032 20.3227 17.8446 20.3029 17.6812C20.0055 15.3162 19.5807 13.0066 18.8153 10.7446C18.5583 9.96121 18.3875 9.22122 18.6388 8.41424C19.5553 6.88052 20.6928 5.90064 22.3922 5.34432C22.9885 5.0357 23.2649 4.40672 23.5852 3.84247C24.7743 1.8529 26.8007 0.939 28.9587 0.361028C30.2928 0.030375 31.5847 -0.052044 32.9548 -0.00225355Z" fill="#242125"/>
<path id="Vector_12" d="M36.9971 50.9401C37.1966 50.9366 37.1966 50.9366 37.4001 50.9331C37.5439 50.932 37.6877 50.931 37.8358 50.93C37.9838 50.9286 38.1318 50.9272 38.2843 50.9258C38.5978 50.9235 38.9113 50.9219 39.2249 50.921C39.7036 50.9186 40.1821 50.9111 40.6607 50.9035C40.9654 50.9019 41.27 50.9006 41.5746 50.8997C41.7888 50.8952 41.7888 50.8952 42.0074 50.8906C42.7888 50.8948 43.266 50.9538 43.833 51.5141C44.1308 51.9141 44.1115 52.2982 44.1105 52.7772C44.1105 52.9954 44.1105 52.9954 44.1105 53.2179C44.1099 53.375 44.1092 53.532 44.1086 53.6938C44.1084 53.8562 44.1082 54.0186 44.1081 54.181C44.1076 54.608 44.1064 55.035 44.1051 55.462C44.1038 55.8979 44.1033 56.3338 44.1027 56.7697C44.1014 57.6246 44.0993 58.4796 44.0968 59.3346C41.5643 60.421 41.5643 60.421 40.5094 60.7499C40.4021 60.7838 40.2948 60.8177 40.1842 60.8526C38.7452 61.2898 37.1316 61.7565 35.6202 61.7565C35.4385 61.3931 35.4792 61.0188 35.4777 60.6202C35.4769 60.528 35.4761 60.4358 35.4753 60.3409C35.4729 60.0351 35.4715 59.7293 35.4703 59.4236C35.4698 59.3191 35.4693 59.2147 35.4688 59.1071C35.4662 58.5543 35.4645 58.0015 35.4634 57.4487C35.462 56.8781 35.4579 56.3075 35.4531 55.7369C35.4499 55.2979 35.4489 54.8589 35.4484 54.4199C35.4479 54.2096 35.4464 53.9993 35.4442 53.789C35.4412 53.4942 35.4414 53.1995 35.4422 52.9047C35.4406 52.8182 35.4391 52.7318 35.4375 52.6427C35.4438 52.0335 35.5996 51.6893 35.9835 51.2213C36.3874 50.9521 36.525 50.9468 36.9971 50.9401Z" fill="#5B5B60"/>
<path id="Vector_13" d="M24.5974 34.7666C24.8377 34.8772 24.8377 34.8772 24.9569 35.1696C24.9875 35.2979 25.0181 35.4262 25.0496 35.5584C25.7061 37.8947 27.165 39.6612 29.1848 40.9712C29.4512 41.1837 29.5571 41.345 29.6814 41.6585C28.9317 42.5389 28.1794 43.4145 27.3991 44.2682C27.1122 44.5946 26.8464 44.9341 26.5784 45.2762C26.0631 45.9097 25.6611 46.306 24.8301 46.4417C24.2978 46.3511 23.9456 46.1399 23.6017 45.717C23.4324 45.4611 23.2871 45.1988 23.1424 44.928C23.0729 44.7988 23.0035 44.6695 22.9319 44.5364C22.4152 43.5491 21.9683 42.5346 21.5379 41.5071C21.488 41.3883 21.4381 41.2695 21.3867 41.1472C20.3265 38.5785 20.3265 38.5785 20.5691 37.9098C21.1778 36.915 23.361 34.7138 24.5974 34.7666Z" fill="#5B5B60"/>
<path id="Vector_14" d="M38.2773 34.75C38.8531 34.8105 39.2391 35.0808 39.6926 35.416C39.8039 35.4971 39.8039 35.4971 39.9175 35.5798C40.5798 36.0694 41.2009 36.5948 41.7891 37.1719C41.8565 37.2377 41.9239 37.3036 41.9934 37.3715C42.4032 37.8116 42.4902 38.153 42.5156 38.7461C42.4181 39.1533 42.2658 39.5323 42.1069 39.9192C42.0629 40.0301 42.0189 40.1409 41.9735 40.2552C41.3439 41.8215 40.6541 43.36 39.8818 44.8613C39.8178 44.9885 39.8178 44.9885 39.7525 45.1183C39.4927 45.6103 39.2496 45.9575 38.7617 46.2539C38.4325 46.3225 38.4325 46.3225 38.0957 46.322C37.9846 46.3247 37.8734 46.3273 37.7589 46.3301C37.299 46.2237 37.1352 45.9999 36.8242 45.6484C36.7029 45.5204 36.5811 45.3927 36.459 45.2653C35.7457 44.5046 35.0561 43.7363 34.4038 42.9224C34.0525 42.488 33.6841 42.0694 33.3125 41.6523C33.5887 41.0911 33.9678 40.8124 34.478 40.4792C36.5427 39.063 37.5206 37.07 38.2773 34.75Z" fill="#5B5B60"/>
<path id="Vector_15" d="M8.13102 42.9844C8.17099 43.0643 8.21095 43.1442 8.25212 43.2266C8.38745 43.2781 8.38745 43.2781 8.52553 43.3306C8.91296 43.4918 9.14273 43.6967 9.44792 43.9834C9.78725 44.2998 10.1278 44.6076 10.4862 44.902C12.3599 46.5025 13.4935 48.9341 13.8224 51.3398C13.8892 52.1916 13.8692 53.0445 13.8527 53.8979C13.8503 54.1214 13.8481 54.3448 13.8461 54.5682C13.8408 55.1067 13.8325 55.6451 13.8224 56.1836C13.2547 55.8669 12.7931 55.5663 12.3163 55.1165C11.933 54.7587 11.5499 54.4045 11.1508 54.0645C10.1188 53.1631 9.21811 52.1744 8.37321 51.0977C8.27596 50.9754 8.17871 50.8532 8.07852 50.7273C7.3136 49.757 6.61919 48.7462 5.95134 47.707C5.87782 47.6007 5.80429 47.4944 5.72854 47.3849C5.55745 47.0398 5.57285 46.9246 5.69401 46.5642C6.19988 45.1241 6.83032 43.8515 8.13102 42.9844Z" fill="#5B5B60"/>
<path id="Vector_16" d="M54.7531 42.9844C56.1442 43.7843 56.7627 45.043 57.296 46.4961C57.355 46.6457 57.355 46.6457 57.4152 46.7984C57.4184 47.3031 57.1288 47.642 56.8495 48.0476C56.7893 48.1375 56.7292 48.2273 56.6672 48.3199C55.7142 49.7278 54.7014 51.0638 53.5421 52.3086C53.4003 52.4721 53.259 52.636 53.1183 52.8005C51.9971 54.0812 50.7117 55.2237 49.3038 56.1836C49.2639 56.1836 49.2239 56.1836 49.1827 56.1836C49.1706 55.5142 49.1619 54.8449 49.1561 54.1755C49.1537 53.9487 49.1505 53.722 49.1462 53.4953C49.1125 51.6479 49.2071 49.8139 50.1137 48.1536C50.1549 48.0748 50.1961 47.996 50.2385 47.9149C50.6572 47.1393 51.1638 46.4487 51.7257 45.7695C51.8041 45.6728 51.8824 45.576 51.9632 45.4763C52.5746 44.7525 53.2786 44.1682 54.0265 43.5898C54.1145 43.5196 54.2026 43.4494 54.2933 43.377C54.5109 43.2266 54.5109 43.2266 54.7531 43.2266C54.7531 43.1466 54.7531 43.0667 54.7531 42.9844Z" fill="#5B5B60"/>
<path id="Vector_17" d="M27.5071 39.7201C28.0296 40.04 28.4927 40.4155 28.9602 40.8099C29.072 40.8942 29.1838 40.9785 29.2989 41.0654C29.5657 41.2943 29.5657 41.2943 29.6868 41.6576C29.4789 41.9401 29.2702 42.1931 29.0359 42.4523C28.9358 42.566 28.9358 42.566 28.8336 42.6821C28.635 42.9069 28.4347 43.1302 28.2337 43.3529C28.1343 43.4631 28.0348 43.5733 27.9324 43.6869C27.7569 43.8808 27.5809 44.0742 27.4045 44.2673C27.1176 44.5937 26.8518 44.9332 26.5838 45.2753C26.0685 45.9088 25.6665 46.3051 24.8355 46.4408C24.2804 46.3463 23.9199 46.1199 23.5815 45.665C23.4275 45.4229 23.2839 45.1797 23.1477 44.9271C23.1031 44.8513 23.0585 44.7754 23.0125 44.6972C22.7119 43.9816 22.8345 43.0759 23.0872 42.3615C23.583 41.2794 24.3753 40.5652 25.4485 40.0834C25.5297 40.0448 25.6109 40.0063 25.6945 39.9665C26.2848 39.7124 26.8747 39.5462 27.5071 39.7201Z" fill="#62626B"/>
<path id="Vector_18" d="M43.1281 18.1665C43.5497 18.3315 43.6964 18.476 43.9531 18.8477C44.2793 19.7749 44.0781 20.54 43.6958 21.4134C43.4286 22.0546 43.1949 22.6698 43.0449 23.3509C42.8859 24.056 42.6448 24.4224 42.0383 24.8267C41.7909 24.8503 41.7909 24.8503 41.5312 24.8418C41.3789 24.8368 41.2265 24.8318 41.0696 24.8267C41.0318 23.889 41.1504 23.0165 41.3117 22.0945C41.518 20.8517 41.617 19.6661 41.5539 18.4087C42.0797 18.1095 42.5352 18.0997 43.1281 18.1665Z" fill="#FEAA7A"/>
<path id="Vector_19" d="M21.4488 18.4083C21.4404 18.5764 21.4404 18.5764 21.4318 18.748C21.3902 20.0255 21.5407 21.2353 21.7609 22.4935C21.8957 23.2808 21.9653 24.0275 21.9332 24.8263C21.0661 24.8851 21.0661 24.8851 20.6238 24.6295C20.0656 24.0234 19.9297 23.3658 19.7487 22.5846C19.6144 22.0971 19.4338 21.6397 19.2464 21.1708C18.9696 20.4604 18.7826 19.8986 18.9058 19.1349C19.1136 18.7116 19.2651 18.4827 19.6702 18.2418C20.3341 18.0874 20.8302 18.1414 21.4488 18.4083Z" fill="#FB945F"/>
</g>
<defs>
<clipPath id="clip0_197_144">
<rect width="62" height="62" fill="white" transform="translate(0.5)"/>
</clipPath>
</defs>
</svg>
